<svg xmlns="http://www.w3.org/2000/svg" viewBox="0 0 1200 780" font-family="'Source Sans Pro','Segoe UI',system-ui,sans-serif">
<rect x="6" y="6" width="1188" height="768" rx="18" fill="#faf8f8" stroke="#e5e5e5" stroke-width="2"/>
<path d="M120.0,395.0 C289.8,303.8 435.2,197.0 605.0,110.0" fill="none" stroke="#b8b8b8" stroke-width="2" stroke-opacity="0.55" stroke-linecap="round"/>
<path d="M120.0,395.0 C289.8,372.4 435.2,214.5 605.0,150.0" fill="none" stroke="#b8b8b8" stroke-width="2" stroke-opacity="0.55" stroke-linecap="round"/>
<path d="M120.0,395.0 C289.8,335.9 435.2,261.5 605.0,195.0" fill="none" stroke="#b8b8b8" stroke-width="2" stroke-opacity="0.55" stroke-linecap="round"/>
<path d="M120.0,395.0 C289.8,312.2 435.2,288.4 605.0,245.0" fill="none" stroke="#b8b8b8" stroke-width="2" stroke-opacity="0.55" stroke-linecap="round"/>
<path d="M120.0,395.0 C289.8,380.6 435.2,358.2 605.0,295.0" fill="none" stroke="#b8b8b8" stroke-width="2" stroke-opacity="0.55" stroke-linecap="round"/>
<path d="M120.0,395.0 C289.8,329.8 435.2,331.8 605.0,340.0" fill="none" stroke="#b8b8b8" stroke-width="2" stroke-opacity="0.55" stroke-linecap="round"/>
<path d="M120.0,395.0 C289.8,345.9 435.2,432.2 605.0,395.0" fill="none" stroke="#b8b8b8" stroke-width="2" stroke-opacity="0.55" stroke-linecap="round"/>
<path d="M120.0,395.0 C289.8,434.7 435.2,379.6 605.0,450.0" fill="none" stroke="#b8b8b8" stroke-width="2" stroke-opacity="0.55" stroke-linecap="round"/>
<path d="M120.0,395.0 C289.8,485.9 435.2,530.0 605.0,505.0" fill="none" stroke="#b8b8b8" stroke-width="2" stroke-opacity="0.55" stroke-linecap="round"/>
<path d="M120.0,395.0 C289.8,461.5 435.2,524.1 605.0,555.0" fill="none" stroke="#b8b8b8" stroke-width="2" stroke-opacity="0.55" stroke-linecap="round"/>
<path d="M120.0,395.0 C289.8,416.9 435.2,488.0 605.0,605.0" fill="none" stroke="#b8b8b8" stroke-width="2" stroke-opacity="0.55" stroke-linecap="round"/>
<path d="M120.0,395.0 C289.8,474.9 435.2,525.7 605.0,650.0" fill="none" stroke="#b8b8b8" stroke-width="2" stroke-opacity="0.55" stroke-linecap="round"/>
<path d="M120.0,395.0 C289.8,446.3 435.2,576.4 605.0,690.0" fill="none" stroke="#b8b8b8" stroke-width="2" stroke-opacity="0.55" stroke-linecap="round"/>
<path d="M120,395 C250,300 400,500 605,395" fill="none" stroke="#3A7CB8" stroke-width="4.6" stroke-linecap="round"/>
<path d="M605.0,395.0 C795.8,253.3 959.2,175.0 1150.0,95.0" fill="none" stroke="#d4896a" stroke-width="2.4" stroke-opacity="0.6" stroke-linecap="round"/>
<path d="M605.0,395.0 C795.8,310.5 959.2,245.5 1150.0,135.0" fill="none" stroke="#d4896a" stroke-width="2.4" stroke-opacity="0.6" stroke-linecap="round"/>
<path d="M605.0,395.0 C795.8,332.6 959.2,255.6 1150.0,180.0" fill="none" stroke="#d4896a" stroke-width="2.4" stroke-opacity="0.6" stroke-linecap="round"/>
<path d="M605.0,395.0 C795.8,345.5 959.2,294.1 1150.0,230.0" fill="none" stroke="#d4896a" stroke-width="2.4" stroke-opacity="0.6" stroke-linecap="round"/>
<path d="M605.0,395.0 C795.8,357.3 959.2,291.4 1150.0,285.0" fill="none" stroke="#d4896a" stroke-width="2.4" stroke-opacity="0.6" stroke-linecap="round"/>
<path d="M605.0,395.0 C795.8,431.7 959.2,406.3 1150.0,335.0" fill="none" stroke="#d4896a" stroke-width="2.4" stroke-opacity="0.6" stroke-linecap="round"/>
<path d="M605.0,395.0 C795.8,432.4 959.2,417.9 1150.0,395.0" fill="none" stroke="#d4896a" stroke-width="2.4" stroke-opacity="0.6" stroke-linecap="round"/>
<path d="M605.0,395.0 C795.8,392.7 959.2,408.5 1150.0,455.0" fill="none" stroke="#d4896a" stroke-width="2.4" stroke-opacity="0.6" stroke-linecap="round"/>
<path d="M605.0,395.0 C795.8,406.3 959.2,430.5 1150.0,510.0" fill="none" stroke="#d4896a" stroke-width="2.4" stroke-opacity="0.6" stroke-linecap="round"/>
<path d="M605.0,395.0 C795.8,473.8 959.2,502.8 1150.0,560.0" fill="none" stroke="#d4896a" stroke-width="2.4" stroke-opacity="0.6" stroke-linecap="round"/>
<path d="M605.0,395.0 C795.8,497.6 959.2,537.3 1150.0,610.0" fill="none" stroke="#d4896a" stroke-width="2.4" stroke-opacity="0.6" stroke-linecap="round"/>
<path d="M605.0,395.0 C795.8,523.4 959.2,620.4 1150.0,655.0" fill="none" stroke="#d4896a" stroke-width="2.4" stroke-opacity="0.6" stroke-linecap="round"/>
<path d="M605.0,395.0 C795.8,431.6 959.2,582.7 1150.0,700.0" fill="none" stroke="#d4896a" stroke-width="2.4" stroke-opacity="0.6" stroke-linecap="round"/>
<line x1="605" y1="90" x2="605" y2="705" stroke="#4e4e4e" stroke-width="3"/>
<circle cx="120" cy="395" r="7" fill="#3A7CB8"/>
<circle cx="605" cy="395" r="9" fill="#3A7CB8"/><circle cx="605" cy="395" r="15" fill="none" stroke="#3A7CB8" stroke-width="2" stroke-opacity="0.5"/>
<text x="605" y="72" text-anchor="middle" font-size="26" font-weight="700" fill="#4e4e4e" letter-spacing="1">PRÉSENT</text>
<text x="330" y="748" text-anchor="middle" font-size="22" font-weight="700" fill="#2b2b2b" letter-spacing="1">LE PASSÉ</text>
<text x="880" y="748" text-anchor="middle" font-size="22" font-weight="700" fill="#2b2b2b" letter-spacing="1">LE FUTUR</text>
<line x1="150" y1="726" x2="520" y2="726" stroke="#4e4e4e" stroke-width="2" marker-start="url(#al)" marker-end="url(#ar)"/>
<line x1="690" y1="726" x2="1120" y2="726" stroke="#4e4e4e" stroke-width="2" marker-start="url(#al)" marker-end="url(#ar)"/>
<defs><marker id="ar" markerWidth="10" markerHeight="10" refX="6" refY="3" orient="auto"><path d="M0,0 L6,3 L0,6 z" fill="#4e4e4e"/></marker><marker id="al" markerWidth="10" markerHeight="10" refX="0" refY="3" orient="auto"><path d="M6,0 L0,3 L6,6 z" fill="#4e4e4e"/></marker></defs>
<text x="120" y="430" text-anchor="middle" font-size="16" fill="#3A7CB8">un point de départ</text>
<text x="335" y="560" font-size="16" font-style="italic" fill="#3A7CB8">votre histoire : un fil parmi les possibles</text>
<text x="628" y="360" font-size="16" font-weight="600" fill="#3A7CB8">votre vie aujourd’hui</text>
<text x="960" y="405" text-anchor="middle" font-size="16" fill="#d4896a">les futurs encore à essayer</text>
<rect x="134" y="94" width="360" height="120" rx="10" fill="#ffffff" stroke="#e5e5e5"/>
<line x1="150" y1="120" x2="194" y2="120" stroke="#b8b8b8" stroke-width="2.5" stroke-linecap="round"/><text x="206" y="125" font-size="15" fill="#2b2b2b">les chemins qui étaient possibles</text>
<line x1="150" y1="154" x2="194" y2="154" stroke="#3A7CB8" stroke-width="4.6" stroke-linecap="round"/><text x="206" y="159" font-size="15" fill="#2b2b2b">le chemin effectivement pris</text>
<line x1="150" y1="188" x2="194" y2="188" stroke="#d4896a" stroke-width="2.8" stroke-linecap="round"/><text x="206" y="193" font-size="15" fill="#2b2b2b">les futurs encore à essayer</text>
<text x="1176" y="758" text-anchor="end" font-size="13" fill="#b8b8b8">Stéphane Caillaud · CC BY-SA 4.0 · idée inspirée de Tim Urban (Wait But Why)</text>
</svg>